<?xml version="1.0" encoding="UTF-8"?>
<svg width="16" height="16" version="1.1" viewBox="0 0 4.23 4.23" xmlns="http://www.w3.org/2000/svg" xmlns:xlink="http://www.w3.org/1999/xlink"><defs><linearGradient id="a"><stop stop-color="#a5d0d4" offset="0"/><stop stop-color="#f1f1f1" offset="1"/></linearGradient><linearGradient id="c" x1="-4.57" x2="14.1" y1="3.19" y2="3.19" gradientUnits="userSpaceOnUse" xlink:href="#a"/><linearGradient id="b" x1="-4.57" x2="14.1" y1="3.19" y2="3.19" gradientTransform="matrix(.0557 0 0 .0774 2.81 1.83)" gradientUnits="userSpaceOnUse" xlink:href="#a"/></defs><g stroke-width="0"><path transform="matrix(.189 0 0 .262 .863 1.28)" d="m14.1 11.3h-9.33-9.33l9.33-16.2 4.66 8.08z" fill="#3e5164"/><path transform="matrix(.085 0 0 .118 1.36 .575)" d="m14.1 11.3-9.33-2.25-9.33 2.25 9.33-16.2 4.66 8.08z" fill="url(#c)"/><path transform="matrix(.124 0 0 .172 2.49 2.3)" d="m14.1 11.3h-9.33-9.33l9.33-16.2 4.66 8.08z" fill="#374859"/><path d="m3.6 2.71-0.52-0.174-0.52 0.174 0.52-1.25 0.26 0.625z" fill="url(#b)"/></g></svg>
